<?xml version="1.0" encoding="UTF-8"?>
<svg width="46px" height="43px" viewBox="0 0 46 43" version="1.1" xmlns="http://www.w3.org/2000/svg" xmlns:xlink="http://www.w3.org/1999/xlink">
    <!-- Generator: Sketch 52.5 (67469) - http://www.bohemiancoding.com/sketch -->
    <title>Group</title>
    <desc>Created with Sketch.</desc>
    <g id="Symbols" stroke="none" stroke-width="1" fill="none" fill-rule="evenodd">
        <g id="Navigation" transform="translate(-24.000000, -23.000000)">
            <g id="Group" transform="translate(24.000000, 23.000000)">
                <polygon id="Fill-1" fill="#FFFFFF" transform="translate(39.500000, 36.500000) scale(-1, 1) translate(-39.500000, -36.500000) " points="33 43 46 43 46 30 33 30"></polygon>
                <polygon id="Fill-4" fill="#4C5270" transform="translate(32.500000, 24.500000) scale(-1, 1) translate(-32.500000, -24.500000) " points="19 30 32.0177413 30 46 19 34 19"></polygon>
                <polygon id="Fill-5" fill="#2C314A" points="6 3.87286878 5.1209037e-13 0 6.82121026e-13 37.3983535 6 43"></polygon>
                <polygon id="Fill-5" fill="#2C314A" transform="translate(26.000000, 31.000000) rotate(-90.000000) translate(-26.000000, -31.000000) " points="38 24 25.9245034 24 14 38 26.9532638 38"></polygon>
                <polygon id="Fill-2" fill="#FFFFFF" points="6 43 19 43 19 4 6 4"></polygon>
                <polygon id="Fill-4" fill="#4C5270" transform="translate(9.500000, 2.000000) scale(-1, 1) translate(-9.500000, -2.000000) " points="0 4 13 4 19 1.70974346e-14 6 0"></polygon>
            </g>
        </g>
    </g>
</svg>