<svg xmlns="http://www.w3.org/2000/svg" xmlns:xlink="http://www.w3.org/1999/xlink" width="100" height="100" viewBox="0 0 100 100"><g><g transform="translate(50 50) scale(0.69 0.69) rotate(0) translate(-50 -50)" style="fill:#FFFFFF"><svg fill="#FFFFFF" xmlns="http://www.w3.org/2000/svg" xmlns:xlink="http://www.w3.org/1999/xlink" version="1.1" x="0px" y="0px" viewBox="0 0 100 100" style="enable-background:new 0 0 100 100;" xml:space="preserve"><g><path d="M84.8,12.7H34.3v5.8H65v11.7H32.3c-1.6,0-2.9,1.3-2.9,2.9v35.4c0,1.6,1.3,2.9,2.9,2.9h14.9c1.6,0,2.9-1.3,2.9-2.9   c0-1.6-1.3-2.9-2.9-2.9H35.2V35.9h32.8c1.6,0,2.9-1.3,2.9-2.9V18.4h11.1v63.5h-3.7v5.8h6.5c1.6,0,2.9-1.3,2.9-2.9V15.6   C87.7,14,86.4,12.7,84.8,12.7z"></path><path d="M71.9,47.3H45.3c-1.6,0-2.9,1.3-2.9,2.9c0,1.6,1.3,2.9,2.9,2.9h11.9v28.8H18.4V18.4h5.2v-5.8h-8.1c-1.6,0-2.9,1.3-2.9,2.9   v69.2c0,1.6,1.3,2.9,2.9,2.9h52.7v-5.8h-5.4V53.1h9c1.6,0,2.9-1.3,2.9-2.9C74.8,48.6,73.5,47.3,71.9,47.3z"></path></g></svg></g></g></svg>